STARTFONT 2.1
FONT -jmk-Neep-Bold-R-Normal--15-140-75-75-C-80-ISO8859-9
SIZE 15 75 75
FONTBOUNDINGBOX 8 15 0 -3
STARTPROPERTIES 29
FONTNAME_REGISTRY ""
FOUNDRY "jmk"
FAMILY_NAME "Neep"
WEIGHT_NAME "Bold"
SLANT "R"
SETWIDTH_NAME "Normal"
ADD_STYLE_NAME ""
PIXEL_SIZE 15
POINT_SIZE 140
RESOLUTION_X 75
RESOLUTION_Y 75
SPACING "C"
AVERAGE_WIDTH 80
CHARSET_REGISTRY "ISO8859"
CHARSET_ENCODING "9"
COPYRIGHT "Jim Knoble <jmknoble@pobox.com>"
WEIGHT 200
RESOLUTION 75
X_HEIGHT 7
FIGURE_WIDTH 8
QUAD_WIDTH 8
FONT_ASCENT 12
FONT_DESCENT 3
_XMBDFED_INFO "Edited with xmbdfed 3.7."
RELATIVE_WEIGHT 70
RELATIVE_SETWIDTH 50
CAP_HEIGHT 10
UNDERLINE_POSITION -2
UNDERLINE_THICKNESS 1
ENDPROPERTIES
CHARS 128
STARTCHAR nil
ENCODING 128
SWIDTH 512 0
DWIDTH 8 0
BBX 8 15 0 -3
BITMAP
00
7E
42
42
42
42
42
42
42
42
42
42
42
7E
00
ENDCHAR
STARTCHAR nil
ENCODING 129
SWIDTH 512 0
DWIDTH 8 0
BBX 8 15 0 -3
BITMAP
00
7E
42
42
42
42
42
42
42
42
42
42
42
7E
00
ENDCHAR
STARTCHAR nil
ENCODING 130
SWIDTH 512 0
DWIDTH 8 0
BBX 8 15 0 -3
BITMAP
00
7E
42
42
42
42
42
42
42
42
42
42
42
7E
00
ENDCHAR
STARTCHAR nil
ENCODING 131
SWIDTH 512 0
DWIDTH 8 0
BBX 8 15 0 -3
BITMAP
00
7E
42
42
42
42
42
42
42
42
42
42
42
7E
00
ENDCHAR
STARTCHAR nil
ENCODING 132
SWIDTH 512 0
DWIDTH 8 0
BBX 8 15 0 -3
BITMAP
00
7E
42
42
42
42
42
42
42
42
42
42
42
7E
00
ENDCHAR
STARTCHAR nil
ENCODING 133
SWIDTH 512 0
DWIDTH 8 0
BBX 8 15 0 -3
BITMAP
00
7E
42
42
42
42
42
42
42
42
42
42
42
7E
00
ENDCHAR
STARTCHAR nil
ENCODING 134
SWIDTH 512 0
DWIDTH 8 0
BBX 8 15 0 -3
BITMAP
00
7E
42
42
42
42
42
42
42
42
42
42
42
7E
00
ENDCHAR
STARTCHAR nil
ENCODING 135
SWIDTH 512 0
DWIDTH 8 0
BBX 8 15 0 -3
BITMAP
00
7E
42
42
42
42
42
42
42
42
42
42
42
7E
00
ENDCHAR
STARTCHAR nil
ENCODING 136
SWIDTH 512 0
DWIDTH 8 0
BBX 8 15 0 -3
BITMAP
00
7E
42
42
42
42
42
42
42
42
42
42
42
7E
00
ENDCHAR
STARTCHAR nil
ENCODING 137
SWIDTH 512 0
DWIDTH 8 0
BBX 8 15 0 -3
BITMAP
00
7E
42
42
42
42
42
42
42
42
42
42
42
7E
00
ENDCHAR
STARTCHAR nil
ENCODING 138
SWIDTH 512 0
DWIDTH 8 0
BBX 8 15 0 -3
BITMAP
00
7E
42
42
42
42
42
42
42
42
42
42
42
7E
00
ENDCHAR
STARTCHAR nil
ENCODING 139
SWIDTH 512 0
DWIDTH 8 0
BBX 8 15 0 -3
BITMAP
00
7E
42
42
42
42
42
42
42
42
42
42
42
7E
00
ENDCHAR
STARTCHAR nil
ENCODING 140
SWIDTH 512 0
DWIDTH 8 0
BBX 8 15 0 -3
BITMAP
00
7E
42
42
42
42
42
42
42
42
42
42
42
7E
00
ENDCHAR
STARTCHAR nil
ENCODING 141
SWIDTH 512 0
DWIDTH 8 0
BBX 8 15 0 -3
BITMAP
00
7E
42
42
42
42
42
42
42
42
42
42
42
7E
00
ENDCHAR
STARTCHAR nil
ENCODING 142
SWIDTH 512 0
DWIDTH 8 0
BBX 8 15 0 -3
BITMAP
00
7E
42
42
42
42
42
42
42
42
42
42
42
7E
00
ENDCHAR
STARTCHAR nil
ENCODING 143
SWIDTH 512 0
DWIDTH 8 0
BBX 8 15 0 -3
BITMAP
00
7E
42
42
42
42
42
42
42
42
42
42
42
7E
00
ENDCHAR
STARTCHAR nil
ENCODING 144
SWIDTH 512 0
DWIDTH 8 0
BBX 8 15 0 -3
BITMAP
00
7E
42
42
42
42
42
42
42
42
42
42
42
7E
00
ENDCHAR
STARTCHAR nil
ENCODING 145
SWIDTH 512 0
DWIDTH 8 0
BBX 8 15 0 -3
BITMAP
00
7E
42
42
42
42
42
42
42
42
42
42
42
7E
00
ENDCHAR
STARTCHAR nil
ENCODING 146
SWIDTH 512 0
DWIDTH 8 0
BBX 8 15 0 -3
BITMAP
00
7E
42
42
42
42
42
42
42
42
42
42
42
7E
00
ENDCHAR
STARTCHAR nil
ENCODING 147
SWIDTH 512 0
DWIDTH 8 0
BBX 8 15 0 -3
BITMAP
00
7E
42
42
42
42
42
42
42
42
42
42
42
7E
00
ENDCHAR
STARTCHAR nil
ENCODING 148
SWIDTH 512 0
DWIDTH 8 0
BBX 8 15 0 -3
BITMAP
00
7E
42
42
42
42
42
42
42
42
42
42
42
7E
00
ENDCHAR
STARTCHAR nil
ENCODING 149
SWIDTH 512 0
DWIDTH 8 0
BBX 8 15 0 -3
BITMAP
00
7E
42
42
42
42
42
42
42
42
42
42
42
7E
00
ENDCHAR
STARTCHAR nil
ENCODING 150
SWIDTH 512 0
DWIDTH 8 0
BBX 8 15 0 -3
BITMAP
00
7E
42
42
42
42
42
42
42
42
42
42
42
7E
00
ENDCHAR
STARTCHAR nil
ENCODING 151
SWIDTH 512 0
DWIDTH 8 0
BBX 8 15 0 -3
BITMAP
00
7E
42
42
42
42
42
42
42
42
42
42
42
7E
00
ENDCHAR
STARTCHAR nil
ENCODING 152
SWIDTH 512 0
DWIDTH 8 0
BBX 8 15 0 -3
BITMAP
00
7E
42
42
42
42
42
42
42
42
42
42
42
7E
00
ENDCHAR
STARTCHAR nil
ENCODING 153
SWIDTH 512 0
DWIDTH 8 0
BBX 8 15 0 -3
BITMAP
00
7E
42
42
42
42
42
42
42
42
42
42
42
7E
00
ENDCHAR
STARTCHAR nil
ENCODING 154
SWIDTH 512 0
DWIDTH 8 0
BBX 8 15 0 -3
BITMAP
00
7E
42
42
42
42
42
42
42
42
42
42
42
7E
00
ENDCHAR
STARTCHAR nil
ENCODING 155
SWIDTH 512 0
DWIDTH 8 0
BBX 8 15 0 -3
BITMAP
00
7E
42
42
42
42
42
42
42
42
42
42
42
7E
00
ENDCHAR
STARTCHAR nil
ENCODING 156
SWIDTH 512 0
DWIDTH 8 0
BBX 8 15 0 -3
BITMAP
00
7E
42
42
42
42
42
42
42
42
42
42
42
7E
00
ENDCHAR
STARTCHAR nil
ENCODING 157
SWIDTH 512 0
DWIDTH 8 0
BBX 8 15 0 -3
BITMAP
00
7E
42
42
42
42
42
42
42
42
42
42
42
7E
00
ENDCHAR
STARTCHAR nil
ENCODING 158
SWIDTH 512 0
DWIDTH 8 0
BBX 8 15 0 -3
BITMAP
00
7E
42
42
42
42
42
42
42
42
42
42
42
7E
00
ENDCHAR
STARTCHAR nil
ENCODING 159
SWIDTH 512 0
DWIDTH 8 0
BBX 8 15 0 -3
BITMAP
00
7E
42
42
42
42
42
42
42
42
42
42
42
7E
00
ENDCHAR
STARTCHAR U+00a0 no-break space
ENCODING 160
SWIDTH 512 0
DWIDTH 8 0
BBX 8 15 0 -3
BITMAP
00
00
00
00
00
00
00
00
00
00
00
00
00
00
00
ENDCHAR
STARTCHAR U+00a1 inverted exclamation mark
ENCODING 161
SWIDTH 512 0
DWIDTH 8 0
BBX 8 15 0 -3
BITMAP
00
00
00
00
00
18
18
00
18
18
18
18
18
18
18
ENDCHAR
STARTCHAR U+00a2 cent sign
ENCODING 162
SWIDTH 512 0
DWIDTH 8 0
BBX 8 15 0 -3
BITMAP
00
00
00
08
3E
7F
63
60
63
7F
3E
08
00
00
00
ENDCHAR
STARTCHAR pound sign
ENCODING 163
SWIDTH 512 0
DWIDTH 8 0
BBX 8 15 0 -3
BITMAP
00
00
1E
3F
33
30
7C
7C
30
30
7F
7F
00
00
00
ENDCHAR
STARTCHAR U+00a4 currency sign
ENCODING 164
SWIDTH 512 0
DWIDTH 8 0
BBX 8 15 0 -3
BITMAP
00
00
00
00
C3
FF
7E
66
66
7E
FF
C3
00
00
00
ENDCHAR
STARTCHAR U+00a5 yen sign
ENCODING 165
SWIDTH 512 0
DWIDTH 8 0
BBX 8 15 0 -3
BITMAP
00
00
66
66
3C
18
7E
7E
18
7E
7E
18
00
00
00
ENDCHAR
STARTCHAR U+00a6 broken bar
ENCODING 166
SWIDTH 512 0
DWIDTH 8 0
BBX 8 15 0 -3
BITMAP
00
00
18
18
18
18
18
00
18
18
18
18
18
00
00
ENDCHAR
STARTCHAR U+00a7 section sign
ENCODING 167
SWIDTH 512 0
DWIDTH 8 0
BBX 8 15 0 -3
BITMAP
00
00
3E
7E
60
3C
7E
66
7E
3C
06
7E
7C
00
00
ENDCHAR
STARTCHAR U+00a8 diaresis
ENCODING 168
SWIDTH 512 0
DWIDTH 8 0
BBX 8 15 0 -3
BITMAP
00
00
36
36
00
00
00
00
00
00
00
00
00
00
00
ENDCHAR
STARTCHAR U+00a9 copyright sign
ENCODING 169
SWIDTH 512 0
DWIDTH 8 0
BBX 8 15 0 -3
BITMAP
00
3C
42
81
9D
BD
B1
BD
9D
81
42
3C
00
00
00
ENDCHAR
STARTCHAR U+00aa feminine ordinal indicator
ENCODING 170
SWIDTH 512 0
DWIDTH 8 0
BBX 8 15 0 -3
BITMAP
00
00
3C
06
3E
66
7E
36
00
7E
7E
00
00
00
00
ENDCHAR
STARTCHAR U+00ab left-pointing double angle quotation mark
ENCODING 171
SWIDTH 512 0
DWIDTH 8 0
BBX 8 15 0 -3
BITMAP
00
00
00
00
00
11
33
66
CC
66
33
11
00
00
00
ENDCHAR
STARTCHAR U+00ac not sign
ENCODING 172
SWIDTH 512 0
DWIDTH 8 0
BBX 8 15 0 -3
BITMAP
00
00
00
00
00
00
00
7F
7F
03
03
00
00
00
00
ENDCHAR
STARTCHAR U+00ad soft hyphen
ENCODING 173
SWIDTH 512 0
DWIDTH 8 0
BBX 8 15 0 -3
BITMAP
00
00
00
00
00
00
00
3C
3C
00
00
00
00
00
00
ENDCHAR
STARTCHAR U+00ae registered sign
ENCODING 174
SWIDTH 512 0
DWIDTH 8 0
BBX 8 15 0 -3
BITMAP
00
3C
42
81
AD
BD
B1
B1
B1
81
42
3C
00
00
00
ENDCHAR
STARTCHAR U+00af macron
ENCODING 175
SWIDTH 512 0
DWIDTH 8 0
BBX 8 15 0 -3
BITMAP
00
00
7F
7F
00
00
00
00
00
00
00
00
00
00
00
ENDCHAR
STARTCHAR U+00b0 degree sign
ENCODING 176
SWIDTH 512 0
DWIDTH 8 0
BBX 8 15 0 -3
BITMAP
00
00
3C
7E
66
7E
3C
00
00
00
00
00
00
00
00
ENDCHAR
STARTCHAR plus-minus-sign
ENCODING 177
SWIDTH 512 0
DWIDTH 8 0
BBX 8 15 0 -3
BITMAP
00
00
00
18
18
18
FF
FF
18
18
18
00
FF
FF
00
ENDCHAR
STARTCHAR U+00b2 superscript two
ENCODING 178
SWIDTH 512 0
DWIDTH 8 0
BBX 8 15 0 -3
BITMAP
00
7C
7E
0C
30
7E
7E
00
00
00
00
00
00
00
00
ENDCHAR
STARTCHAR U+00b3 superscript three
ENCODING 179
SWIDTH 512 0
DWIDTH 8 0
BBX 8 15 0 -3
BITMAP
00
7E
7C
1C
06
7E
7C
00
00
00
00
00
00
00
00
ENDCHAR
STARTCHAR U+00b4 acute accent
ENCODING 180
SWIDTH 512 0
DWIDTH 8 0
BBX 8 15 0 -3
BITMAP
00
00
0E
38
00
00
00
00
00
00
00
00
00
00
00
ENDCHAR
STARTCHAR U+00b5 micro sign
ENCODING 181
SWIDTH 512 0
DWIDTH 8 0
BBX 8 15 0 -3
BITMAP
00
00
00
00
00
66
66
66
66
7F
7B
60
60
00
00
ENDCHAR
STARTCHAR U+00b6 pilcrow sign
ENCODING 182
SWIDTH 512 0
DWIDTH 8 0
BBX 8 15 0 -3
BITMAP
00
00
3F
7F
7B
7B
7B
3B
1B
1B
1B
1B
00
00
00
ENDCHAR
STARTCHAR U+00b7 middle dot
ENCODING 183
SWIDTH 512 0
DWIDTH 8 0
BBX 8 15 0 -3
BITMAP
00
00
00
00
00
00
18
3C
18
00
00
00
00
00
00
ENDCHAR
STARTCHAR U+00b8 cedilla
ENCODING 184
SWIDTH 512 0
DWIDTH 8 0
BBX 8 15 0 -3
BITMAP
00
00
00
00
00
00
00
00
00
00
00
08
0C
18
00
ENDCHAR
STARTCHAR U+00b9 superscript one
ENCODING 185
SWIDTH 512 0
DWIDTH 8 0
BBX 8 15 0 -3
BITMAP
00
08
18
38
18
18
18
00
00
00
00
00
00
00
00
ENDCHAR
STARTCHAR U+00ba masculine ordinal indicator
ENCODING 186
SWIDTH 512 0
DWIDTH 8 0
BBX 8 15 0 -3
BITMAP
00
00
3C
7E
66
66
7E
3C
00
7E
7E
00
00
00
00
ENDCHAR
STARTCHAR U+00bb right-pointing double angle quotation mark
ENCODING 187
SWIDTH 512 0
DWIDTH 8 0
BBX 8 15 0 -3
BITMAP
00
00
00
00
00
88
CC
66
33
66
CC
88
00
00
00
ENDCHAR
STARTCHAR U+00bc vulgar fraction one quarter
ENCODING 188
SWIDTH 512 0
DWIDTH 8 0
BBX 8 15 0 -3
BITMAP
00
10
30
70
30
30
30
00
03
07
0B
1B
1F
03
00
ENDCHAR
STARTCHAR U+00bd vulgar fraction one half
ENCODING 189
SWIDTH 512 0
DWIDTH 8 0
BBX 8 15 0 -3
BITMAP
00
10
30
70
30
30
30
00
1E
1F
03
0C
1F
1F
00
ENDCHAR
STARTCHAR U+00be vulgar fraction three quarters
ENCODING 190
SWIDTH 512 0
DWIDTH 8 0
BBX 8 15 0 -3
BITMAP
00
7C
78
18
0C
7C
78
00
03
07
0B
1B
1F
03
00
ENDCHAR
STARTCHAR U+00bf inverted question mark
ENCODING 191
SWIDTH 512 0
DWIDTH 8 0
BBX 8 15 0 -3
BITMAP
00
00
00
00
00
0C
0C
00
0C
0C
18
30
60
7E
3E
ENDCHAR
STARTCHAR U+00c0 latin capital letter A with grave
ENCODING 192
SWIDTH 512 0
DWIDTH 8 0
BBX 8 15 0 -3
BITMAP
00
38
0E
00
3E
7F
63
7F
7F
63
63
63
00
00
00
ENDCHAR
STARTCHAR U+00c1 latin capital letter A with acute
ENCODING 193
SWIDTH 512 0
DWIDTH 8 0
BBX 8 15 0 -3
BITMAP
00
0E
38
00
3E
7F
63
7F
7F
63
63
63
00
00
00
ENDCHAR
STARTCHAR U+00c2 latin capital letter A with circumflex
ENCODING 194
SWIDTH 512 0
DWIDTH 8 0
BBX 8 15 0 -3
BITMAP
00
1C
36
00
3E
7F
63
7F
7F
63
63
63
00
00
00
ENDCHAR
STARTCHAR U+00c3 latin capital letter A with tilde
ENCODING 195
SWIDTH 512 0
DWIDTH 8 0
BBX 8 15 0 -3
BITMAP
00
3B
6E
00
3E
7F
63
7F
7F
63
63
63
00
00
00
ENDCHAR
STARTCHAR U+00c4 latin capital letter A with diaresis
ENCODING 196
SWIDTH 512 0
DWIDTH 8 0
BBX 8 15 0 -3
BITMAP
00
36
36
00
3E
7F
63
7F
7F
63
63
63
00
00
00
ENDCHAR
STARTCHAR U+00c5 latin capital letter A with ring above
ENCODING 197
SWIDTH 512 0
DWIDTH 8 0
BBX 8 15 0 -3
BITMAP
00
1C
36
1C
3E
7F
63
7F
7F
63
63
63
00
00
00
ENDCHAR
STARTCHAR U+00c6 latin capital ligature AE
ENCODING 198
SWIDTH 512 0
DWIDTH 8 0
BBX 8 15 0 -3
BITMAP
00
00
3F
7F
6C
6C
7F
7F
6C
6C
6F
6F
00
00
00
ENDCHAR
STARTCHAR U+00c7 latin capital letter C with cedilla
ENCODING 199
SWIDTH 512 0
DWIDTH 8 0
BBX 8 15 0 -3
BITMAP
00
00
3E
7F
63
60
60
60
60
63
7F
3E
0C
18
00
ENDCHAR
STARTCHAR U+00c8 latin capital letter E with grave
ENCODING 200
SWIDTH 512 0
DWIDTH 8 0
BBX 8 15 0 -3
BITMAP
00
38
0E
00
7F
7F
60
7E
7E
60
7F
7F
00
00
00
ENDCHAR
STARTCHAR U+00c9 latin capital letter E with acute
ENCODING 201
SWIDTH 512 0
DWIDTH 8 0
BBX 8 15 0 -3
BITMAP
00
0E
38
00
7F
7F
60
7E
7E
60
7F
7F
00
00
00
ENDCHAR
STARTCHAR U+00ca latin capital letter E with circumflex
ENCODING 202
SWIDTH 512 0
DWIDTH 8 0
BBX 8 15 0 -3
BITMAP
00
1C
36
00
7F
7F
60
7E
7E
60
7F
7F
00
00
00
ENDCHAR
STARTCHAR U+00cb latin capital letter E with diaresis
ENCODING 203
SWIDTH 512 0
DWIDTH 8 0
BBX 8 15 0 -3
BITMAP
00
36
36
00
7F
7F
60
7E
7E
60
7F
7F
00
00
00
ENDCHAR
STARTCHAR U+00cc latin capital letter I with grave
ENCODING 204
SWIDTH 512 0
DWIDTH 8 0
BBX 8 15 0 -3
BITMAP
00
70
1C
00
7E
7E
18
18
18
18
7E
7E
00
00
00
ENDCHAR
STARTCHAR U+00cd latin capital letter I with acute
ENCODING 205
SWIDTH 512 0
DWIDTH 8 0
BBX 8 15 0 -3
BITMAP
00
0E
38
00
7E
7E
18
18
18
18
7E
7E
00
00
00
ENDCHAR
STARTCHAR U+00ce latin capital letter I with circumflex
ENCODING 206
SWIDTH 512 0
DWIDTH 8 0
BBX 8 15 0 -3
BITMAP
00
1C
36
00
7E
7E
18
18
18
18
7E
7E
00
00
00
ENDCHAR
STARTCHAR U+00cf latin capital letter I with diaresis
ENCODING 207
SWIDTH 512 0
DWIDTH 8 0
BBX 8 15 0 -3
BITMAP
00
36
36
00
7E
7E
18
18
18
18
7E
7E
00
00
00
ENDCHAR
STARTCHAR U+011e latin capital letter G with breve
ENCODING 208
SWIDTH 512 0
DWIDTH 8 0
BBX 8 15 0 -3
BITMAP
41
63
3E
00
3E
7F
60
6F
6F
63
7F
3F
00
00
00
ENDCHAR
STARTCHAR U+00d1 latin capital letter N with tilde
ENCODING 209
SWIDTH 512 0
DWIDTH 8 0
BBX 8 15 0 -3
BITMAP
00
3B
6E
00
63
73
73
7B
6F
67
67
63
00
00
00
ENDCHAR
STARTCHAR U+00d2 latin capital letter O with grave
ENCODING 210
SWIDTH 512 0
DWIDTH 8 0
BBX 8 15 0 -3
BITMAP
00
38
0E
00
3E
7F
63
63
63
63
7F
3E
00
00
00
ENDCHAR
STARTCHAR U+00d3 latin capital letter O with acute
ENCODING 211
SWIDTH 512 0
DWIDTH 8 0
BBX 8 15 0 -3
BITMAP
00
0E
38
00
3E
7F
63
63
63
63
7F
3E
00
00
00
ENDCHAR
STARTCHAR U+00d4 latin capital letter O with circumflex
ENCODING 212
SWIDTH 512 0
DWIDTH 8 0
BBX 8 15 0 -3
BITMAP
00
1C
36
00
3E
7F
63
63
63
63
7F
3E
00
00
00
ENDCHAR
STARTCHAR U+00d5 latin capital letter O with tilde
ENCODING 213
SWIDTH 512 0
DWIDTH 8 0
BBX 8 15 0 -3
BITMAP
00
3B
6E
00
3E
7F
63
63
63
63
7F
3E
00
00
00
ENDCHAR
STARTCHAR U+00d6 latin capital letter O with diaresis
ENCODING 214
SWIDTH 512 0
DWIDTH 8 0
BBX 8 15 0 -3
BITMAP
00
36
36
00
3E
7F
63
63
63
63
7F
3E
00
00
00
ENDCHAR
STARTCHAR U+00d7 multiplication sign
ENCODING 215
SWIDTH 512 0
DWIDTH 8 0
BBX 8 15 0 -3
BITMAP
00
00
00
00
00
63
36
1C
1C
36
63
00
00
00
00
ENDCHAR
STARTCHAR U+00d8 latin capital letter O with stroke
ENCODING 216
SWIDTH 512 0
DWIDTH 8 0
BBX 8 15 0 -3
BITMAP
00
01
3E
7F
67
67
6B
6B
73
73
7F
3E
40
00
00
ENDCHAR
STARTCHAR U+00d9 latin capital letter U with grave
ENCODING 217
SWIDTH 512 0
DWIDTH 8 0
BBX 8 15 0 -3
BITMAP
00
38
0E
00
63
63
63
63
63
63
7F
3E
00
00
00
ENDCHAR
STARTCHAR U+00da latin capital letter U with acute
ENCODING 218
SWIDTH 512 0
DWIDTH 8 0
BBX 8 15 0 -3
BITMAP
00
0E
38
00
63
63
63
63
63
63
7F
3E
00
00
00
ENDCHAR
STARTCHAR U+00db latin capital letter U with circumflex
ENCODING 219
SWIDTH 512 0
DWIDTH 8 0
BBX 8 15 0 -3
BITMAP
00
1C
36
00
63
63
63
63
63
63
7F
3E
00
00
00
ENDCHAR
STARTCHAR U+00dc latin capital letter U with diaresis
ENCODING 220
SWIDTH 512 0
DWIDTH 8 0
BBX 8 15 0 -3
BITMAP
00
36
36
00
63
63
63
63
63
63
7F
3E
00
00
00
ENDCHAR
STARTCHAR U+00cd latin capital letter I with acute
ENCODING 221
SWIDTH 512 0
DWIDTH 8 0
BBX 8 15 0 -3
BITMAP
00
18
18
00
7E
7E
18
18
18
18
7E
7E
00
00
00
ENDCHAR
STARTCHAR U+015e latin capital letter S with cedilla
ENCODING 222
SWIDTH 512 0
DWIDTH 8 0
BBX 8 15 0 -3
BITMAP
00
00
3E
7F
63
70
3C
1E
07
63
7F
3E
0C
18
00
ENDCHAR
STARTCHAR U+00df latin small letter sharp s
ENCODING 223
SWIDTH 512 0
DWIDTH 8 0
BBX 8 15 0 -3
BITMAP
00
00
3C
7E
66
66
6C
66
63
63
6F
6E
60
00
00
ENDCHAR
STARTCHAR U+00e0 latin small letter a with grave
ENCODING 224
SWIDTH 512 0
DWIDTH 8 0
BBX 8 15 0 -3
BITMAP
00
00
38
0E
00
3E
3F
03
3F
63
7F
3B
00
00
00
ENDCHAR
STARTCHAR U+00e1 latin small letter a with acute
ENCODING 225
SWIDTH 512 0
DWIDTH 8 0
BBX 8 15 0 -3
BITMAP
00
00
0E
38
00
3E
3F
03
3F
63
7F
3B
00
00
00
ENDCHAR
STARTCHAR U+00e2 latin small letter a with circumflex
ENCODING 226
SWIDTH 512 0
DWIDTH 8 0
BBX 8 15 0 -3
BITMAP
00
00
1C
36
00
3E
3F
03
3F
63
7F
3B
00
00
00
ENDCHAR
STARTCHAR U+00e3 latin small letter a with tilde
ENCODING 227
SWIDTH 512 0
DWIDTH 8 0
BBX 8 15 0 -3
BITMAP
00
00
3B
6E
00
3E
3F
03
3F
63
7F
3B
00
00
00
ENDCHAR
STARTCHAR U+00e4 latin small letter a with diaresis
ENCODING 228
SWIDTH 512 0
DWIDTH 8 0
BBX 8 15 0 -3
BITMAP
00
00
36
36
00
3E
3F
03
3F
63
7F
3B
00
00
00
ENDCHAR
STARTCHAR U+00e5 latin small letter a with ring above
ENCODING 229
SWIDTH 512 0
DWIDTH 8 0
BBX 8 15 0 -3
BITMAP
00
1C
36
1C
00
3E
3F
03
3F
63
7F
3B
00
00
00
ENDCHAR
STARTCHAR U+00e6 latin small ligature ae
ENCODING 230
SWIDTH 512 0
DWIDTH 8 0
BBX 8 15 0 -3
BITMAP
00
00
00
00
00
76
7F
1B
7F
D8
FE
6E
00
00
00
ENDCHAR
STARTCHAR U+00e7 latin small letter c with cedilla
ENCODING 231
SWIDTH 512 0
DWIDTH 8 0
BBX 8 15 0 -3
BITMAP
00
00
00
00
00
3E
7F
63
60
63
7F
3E
0C
18
00
ENDCHAR
STARTCHAR U+00e8 latin small letter e with grave
ENCODING 232
SWIDTH 512 0
DWIDTH 8 0
BBX 8 15 0 -3
BITMAP
00
00
38
0E
00
3E
7F
63
7F
60
7E
3E
00
00
00
ENDCHAR
STARTCHAR U+00e9 latin small letter e with acute
ENCODING 233
SWIDTH 512 0
DWIDTH 8 0
BBX 8 15 0 -3
BITMAP
00
00
0E
38
00
3E
7F
63
7F
60
7E
3E
00
00
00
ENDCHAR
STARTCHAR U+00ea latin small letter e with circumflex
ENCODING 234
SWIDTH 512 0
DWIDTH 8 0
BBX 8 15 0 -3
BITMAP
00
00
1C
36
00
3E
7F
63
7F
60
7E
3E
00
00
00
ENDCHAR
STARTCHAR U+00eb latin small letter e with diaresis
ENCODING 235
SWIDTH 512 0
DWIDTH 8 0
BBX 8 15 0 -3
BITMAP
00
00
36
36
00
3E
7F
63
7F
60
7E
3E
00
00
00
ENDCHAR
STARTCHAR U+00ec latin small letter i with grave
ENCODING 236
SWIDTH 512 0
DWIDTH 8 0
BBX 8 15 0 -3
BITMAP
00
00
38
0E
00
3C
3C
0C
0C
0C
0C
0C
00
00
00
ENDCHAR
STARTCHAR U+00ed latin small letter i with acute
ENCODING 237
SWIDTH 512 0
DWIDTH 8 0
BBX 8 15 0 -3
BITMAP
00
00
0E
38
00
3C
3C
0C
0C
0C
0C
0C
00
00
00
ENDCHAR
STARTCHAR U+00ee latin small letter i with circumflex
ENCODING 238
SWIDTH 512 0
DWIDTH 8 0
BBX 8 15 0 -3
BITMAP
00
00
1C
36
00
3C
3C
0C
0C
0C
0C
0C
00
00
00
ENDCHAR
STARTCHAR U+00ef latin small letter i with diaresis
ENCODING 239
SWIDTH 512 0
DWIDTH 8 0
BBX 8 15 0 -3
BITMAP
00
00
36
36
00
3C
3C
0C
0C
0C
0C
0C
00
00
00
ENDCHAR
STARTCHAR U+011f latin small letter g with breve
ENCODING 240
SWIDTH 512 0
DWIDTH 8 0
BBX 8 15 0 -3
BITMAP
00
41
63
3E
00
3B
7F
63
63
7F
3B
03
63
7F
3E
ENDCHAR
STARTCHAR U+00f1 latin small letter n with tilde
ENCODING 241
SWIDTH 512 0
DWIDTH 8 0
BBX 8 15 0 -3
BITMAP
00
00
3B
6E
00
6E
7F
63
63
63
63
63
00
00
00
ENDCHAR
STARTCHAR U+00f2 latin small letter o with grave
ENCODING 242
SWIDTH 512 0
DWIDTH 8 0
BBX 8 15 0 -3
BITMAP
00
00
38
0E
00
3E
7F
63
63
63
7F
3E
00
00
00
ENDCHAR
STARTCHAR U+00f3 latin small letter o with acute
ENCODING 243
SWIDTH 512 0
DWIDTH 8 0
BBX 8 15 0 -3
BITMAP
00
00
0E
38
00
3E
7F
63
63
63
7F
3E
00
00
00
ENDCHAR
STARTCHAR U+00f4 latin small letter o with circumflex
ENCODING 244
SWIDTH 512 0
DWIDTH 8 0
BBX 8 15 0 -3
BITMAP
00
00
1C
36
00
3E
7F
63
63
63
7F
3E
00
00
00
ENDCHAR
STARTCHAR U+00f5 latin small letter o with tilde
ENCODING 245
SWIDTH 512 0
DWIDTH 8 0
BBX 8 15 0 -3
BITMAP
00
00
3B
6E
00
3E
7F
63
63
63
7F
3E
00
00
00
ENDCHAR
STARTCHAR U+00f6 latin small letter o with diaresis
ENCODING 246
SWIDTH 512 0
DWIDTH 8 0
BBX 8 15 0 -3
BITMAP
00
00
36
36
00
3E
7F
63
63
63
7F
3E
00
00
00
ENDCHAR
STARTCHAR U+00f7 division sign
ENCODING 247
SWIDTH 512 0
DWIDTH 8 0
BBX 8 15 0 -3
BITMAP
00
00
00
00
18
18
00
FF
FF
00
18
18
00
00
00
ENDCHAR
STARTCHAR U+00f8 latin small letter o with stroke
ENCODING 248
SWIDTH 512 0
DWIDTH 8 0
BBX 8 15 0 -3
BITMAP
00
00
00
00
01
3E
7F
67
6B
73
7F
3E
40
00
00
ENDCHAR
STARTCHAR U+00f9 latin small letter u with grave
ENCODING 249
SWIDTH 512 0
DWIDTH 8 0
BBX 8 15 0 -3
BITMAP
00
00
38
0E
00
63
63
63
63
63
7F
3B
00
00
00
ENDCHAR
STARTCHAR U+00fa latin small letter u with acute
ENCODING 250
SWIDTH 512 0
DWIDTH 8 0
BBX 8 15 0 -3
BITMAP
00
00
0E
38
00
63
63
63
63
63
7F
3B
00
00
00
ENDCHAR
STARTCHAR U+00fb latin small letter u with circumflex
ENCODING 251
SWIDTH 512 0
DWIDTH 8 0
BBX 8 15 0 -3
BITMAP
00
00
1C
36
00
63
63
63
63
63
7F
3B
00
00
00
ENDCHAR
STARTCHAR U+00fc latin small letter u with diaresis
ENCODING 252
SWIDTH 512 0
DWIDTH 8 0
BBX 8 15 0 -3
BITMAP
00
00
36
36
00
63
63
63
63
63
7F
3B
00
00
00
ENDCHAR
STARTCHAR U+0131 latin small letter dotless i
ENCODING 253
SWIDTH 512 0
DWIDTH 8 0
BBX 8 15 0 -3
BITMAP
00
00
00
00
00
3C
3C
0C
0C
0C
0C
0C
00
00
00
ENDCHAR
STARTCHAR U+015f latin small letter s with cedilla
ENCODING 254
SWIDTH 512 0
DWIDTH 8 0
BBX 8 15 0 -3
BITMAP
00
00
00
00
00
3F
7F
60
3E
03
7F
7E
0C
18
00
ENDCHAR
STARTCHAR U+00ff latin small letter y with diaresis
ENCODING 255
SWIDTH 512 0
DWIDTH 8 0
BBX 8 15 0 -3
BITMAP
00
00
66
66
00
66
66
66
66
7E
36
06
66
7E
3C
ENDCHAR
ENDFONT
